<?xml version="1.0" encoding="UTF-8"?>
<!DOCTYPE svg PUBLIC "-//W3C//DTD SVG 1.1//EN" "http://www.w3.org/Graphics/SVG/1.1/DTD/svg11.dtd">
<!-- Creator: CorelDRAW -->
<svg xmlns="http://www.w3.org/2000/svg" xml:space="preserve" width="0.68622in" height="0.684626in" version="1.1" style="shape-rendering:geometricPrecision; text-rendering:geometricPrecision; image-rendering:optimizeQuality; fill-rule:evenodd; clip-rule:evenodd"
viewBox="0 0 5.62 5.61"
 xmlns:xlink="http://www.w3.org/1999/xlink"
 xmlns:xodm="http://www.corel.com/coreldraw/odm/2003">
 <defs>
  <style type="text/css">
   <![CDATA[
    .fil0 {fill:#34B0BE;fill-rule:nonzero}
   ]]>
  </style>
 </defs>
 <g id="Capa_x0020_1">
  <metadata id="CorelCorpID_0Corel-Layer"/>
  <g id="_2574035279632">
   <path class="fil0" d="M0.68 0c0.37,0 0.68,0.3 0.68,0.68 0,0.37 -0.3,0.68 -0.68,0.68 -0.37,0 -0.68,-0.3 -0.68,-0.68 0,-0.37 0.3,-0.68 0.68,-0.68zm-0.58 1.86l1.17 0 0 3.75 -1.17 0 0 -3.75z"/>
   <path class="fil0" d="M1.99 1.86l1.12 0 0 0.51 0.02 0c0.16,-0.29 0.54,-0.61 1.1,-0.61 1.18,0 1.4,0.78 1.4,1.78l0 2.05 -1.16 0 0 -1.82c0,-0.43 -0.01,-0.99 -0.61,-0.99 -0.61,0 -0.7,0.47 -0.7,0.96l0 1.85 -1.16 0 0 -3.75z"/>
  </g>
 </g>
</svg>
