<?xml version="1.0" encoding="UTF-8"?>
<!DOCTYPE svg PUBLIC "-//W3C//DTD SVG 1.1//EN" "http://www.w3.org/Graphics/SVG/1.1/DTD/svg11.dtd">
<!-- Creator: CorelDRAW -->
<svg xmlns="http://www.w3.org/2000/svg" xml:space="preserve" width="1.01522in" height="0.938732in" version="1.1" shape-rendering="geometricPrecision" text-rendering="geometricPrecision" image-rendering="optimizeQuality" fill-rule="evenodd" clip-rule="evenodd"
viewBox="0 0 18.62 17.22"
 xmlns:xlink="http://www.w3.org/1999/xlink"
 xmlns:xodm="http://www.corel.com/coreldraw/odm/2003">
 <g id="Capa_x0020_1">
  <metadata id="CorelCorpID_0Corel-Layer"/>
  <path fill="white" fill-rule="nonzero" d="M16.14 5.88c0.26,-0.23 0.21,-0.5 -0.12,-0.61l-1.18 -0.39c-0.33,-0.11 -0.5,-0.46 -0.37,-0.79l0.45 -1.15c0.13,-0.32 -0.05,-0.54 -0.39,-0.49l-1.22 0.2c-0.34,0.06 -0.65,-0.18 -0.69,-0.52l-0.13 -1.24c-0.04,-0.34 -0.3,-0.46 -0.57,-0.25l-0.99 0.74c-0.28,0.21 -0.66,0.14 -0.86,-0.15l-0.69 -1.03c-0.19,-0.29 -0.47,-0.27 -0.62,0.05l-0.53 1.12c-0.15,0.31 -0.52,0.44 -0.83,0.27l-1.09 -0.59c-0.31,-0.17 -0.54,-0.02 -0.53,0.33l0.05 1.24c0.01,0.35 -0.26,0.63 -0.61,0.62l-1.24 -0.02c-0.35,-0.01 -0.49,0.24 -0.32,0.54l0.62 1.07c0.17,0.3 0.06,0.68 -0.25,0.83l-1.11 0.56c-0.31,0.16 -0.32,0.44 -0.03,0.62l1.05 0.66c0.29,0.19 0.37,0.57 0.17,0.85l-0.72 1.01c-0.2,0.29 -0.08,0.54 0.26,0.57l1.24 0.1c0.35,0.03 0.59,0.33 0.55,0.68l-0.16 1.23c-0.05,0.34 0.18,0.51 0.5,0.38l1.14 -0.48c0.32,-0.14 0.68,0.02 0.8,0.35l0.43 1.16c0.12,0.33 0.4,0.37 0.62,0.1l0.79 -0.96c0.22,-0.27 0.61,-0.3 0.87,-0.06l0.92 0.83c0.26,0.23 0.52,0.15 0.59,-0.19l0.25 -1.22c0.07,-0.34 0.4,-0.55 0.74,-0.46l1.2 0.31c0.34,0.09 0.53,-0.11 0.44,-0.45l-0.34 -1.19c-0.1,-0.33 0.1,-0.67 0.44,-0.75l1.21 -0.28c0.34,-0.08 0.42,-0.35 0.18,-0.6l-0.86 -0.9c-0.24,-0.25 -0.22,-0.64 0.04,-0.87l0.94 -0.81z"/>
  <path fill="white" fill-rule="nonzero" d="M14.63 10.49l0.34 1.19c0.1,0.33 -0.1,0.53 -0.44,0.45l-1.2 -0.31c-0.34,-0.09 -0.67,0.12 -0.74,0.46l-0.21 1.04 3.51 3.89 0.28 -2.37 2.44 -0.08 -4.01 -4.45c-0,0.06 0.01,0.12 0.02,0.18z"/>
  <path fill="white" fill-rule="nonzero" d="M6.47 12.34l-1.14 0.48c-0.32,0.14 -0.54,-0.03 -0.5,-0.38l0.17 -1.23c0.05,-0.34 -0.2,-0.65 -0.55,-0.68l-0.18 -0.01 -4.27 3.85 2.37 0.28 0.08 2.44 4.83 -4.36 -0.02 -0.05c-0.12,-0.33 -0.48,-0.48 -0.8,-0.35z"/>
 </g>
</svg>
