<?xml version="1.0" encoding="UTF-8"?>
<!DOCTYPE svg PUBLIC "-//W3C//DTD SVG 1.1//EN" "http://www.w3.org/Graphics/SVG/1.1/DTD/svg11.dtd">
<!-- Creator: CorelDRAW -->
<svg xmlns="http://www.w3.org/2000/svg" xml:space="preserve" width="1.1031in" height="1.1031in" version="1.1" style="shape-rendering:geometricPrecision; text-rendering:geometricPrecision; image-rendering:optimizeQuality; fill-rule:evenodd; clip-rule:evenodd"
viewBox="0 0 16.6 16.6"
 xmlns:xlink="http://www.w3.org/1999/xlink"
 xmlns:xodm="http://www.corel.com/coreldraw/odm/2003">
 <defs>
  <style type="text/css">
   <![CDATA[
    .fil0 {fill:#4C4E50;fill-rule:nonzero}
   ]]>
  </style>
 </defs>
 <g id="Capa_x0020_1">
  <metadata id="CorelCorpID_0Corel-Layer"/>
  <path class="fil0" d="M-0 12.26l0 -7.92c0,-2.39 1.95,-4.34 4.34,-4.34l7.92 0c2.39,0 4.34,1.95 4.34,4.34l0 7.92c-0,2.39 -1.95,4.34 -4.34,4.34l-2.66 0 0 -5.63 1.93 0 0.37 -2.4 -2.3 -0 0 -1.57c0,-0.35 0.1,-0.71 0.35,-0.95 0.32,-0.31 0.78,-0.34 0.97,-0.34l1.08 -0c0,-0.68 0,-1.36 0,-2.04 -0.1,-0.02 -0.84,-0.13 -1.68,-0.16 -1.13,-0.04 -1.93,0.31 -2.43,0.78 -0.61,0.57 -0.91,1.53 -0.88,2.49l0 1.79 -2.11 0 0 2.4 2.11 0 0 5.63 -2.66 0c-2.39,0 -4.34,-1.95 -4.34,-4.34z"/>
 </g>
</svg>
