<?xml version="1.0" encoding="UTF-8"?>
<!DOCTYPE svg PUBLIC "-//W3C//DTD SVG 1.1//EN" "http://www.w3.org/Graphics/SVG/1.1/DTD/svg11.dtd">
<!-- Creator: CorelDRAW -->
<svg xmlns="http://www.w3.org/2000/svg" xml:space="preserve" width="0.68622in" height="0.68622in" version="1.1" style="shape-rendering:geometricPrecision; text-rendering:geometricPrecision; image-rendering:optimizeQuality; fill-rule:evenodd; clip-rule:evenodd"
viewBox="0 0 6.25 6.25"
 xmlns:xlink="http://www.w3.org/1999/xlink"
 xmlns:xodm="http://www.corel.com/coreldraw/odm/2003">
 <defs>
  <style type="text/css">
   <![CDATA[
    .fil0 {fill:#34B0BE;fill-rule:nonzero}
   ]]>
  </style>
 </defs>
 <g id="Capa_x0020_1">
  <metadata id="CorelCorpID_0Corel-Layer"/>
  <path class="fil0" d="M4.78 1.12c-0.2,0 -0.37,0.16 -0.37,0.37 0,0.2 0.16,0.37 0.37,0.37 0.2,0 0.37,-0.16 0.37,-0.37 0,-0.2 -0.16,-0.37 -0.37,-0.37z"/>
  <path class="fil0" d="M3.15 4.11c-0.54,0 -0.99,-0.44 -0.99,-0.99 0,-0.54 0.44,-0.99 0.99,-0.99 0.54,0 0.99,0.44 0.99,0.99 0,0.54 -0.44,0.99 -0.99,0.99zm0 -2.52c-0.85,0 -1.54,0.69 -1.54,1.54 0,0.85 0.69,1.54 1.54,1.54 0.85,0 1.54,-0.69 1.54,-1.54 0,-0.85 -0.69,-1.54 -1.54,-1.54z"/>
  <path class="fil0" d="M1.88 0.59c-0.71,0 -1.29,0.58 -1.29,1.29l0 2.49c0,0.71 0.58,1.29 1.29,1.29l2.49 0c0.71,0 1.29,-0.58 1.29,-1.29l0 -2.49c0,-0.71 -0.58,-1.29 -1.29,-1.29l-2.49 0zm2.49 5.66l-2.49 0c-1.03,0 -1.88,-0.84 -1.88,-1.88l0 -2.49c0,-1.03 0.84,-1.88 1.88,-1.88l2.49 0c1.03,0 1.88,0.84 1.88,1.88l0 2.49c0,1.03 -0.84,1.88 -1.88,1.88z"/>
 </g>
</svg>
