<?xml version="1.0" encoding="UTF-8"?>
<!DOCTYPE svg PUBLIC "-//W3C//DTD SVG 1.1//EN" "http://www.w3.org/Graphics/SVG/1.1/DTD/svg11.dtd">
<!-- Creator: CorelDRAW -->
<svg xmlns="http://www.w3.org/2000/svg" xml:space="preserve" width="1.0522in" height="1.0522in" version="1.1" style="shape-rendering:geometricPrecision; text-rendering:geometricPrecision; image-rendering:optimizeQuality; fill-rule:evenodd; clip-rule:evenodd"
viewBox="0 0 14.48 14.48"
 xmlns:xlink="http://www.w3.org/1999/xlink"
 xmlns:xodm="http://www.corel.com/coreldraw/odm/2003">
 <defs>
  <style type="text/css">
   <![CDATA[
    .fil0 {fill:#4C4E50;fill-rule:nonzero}
   ]]>
  </style>
 </defs>
 <g id="Capa_x0020_1">
  <metadata id="CorelCorpID_0Corel-Layer"/>
  <path class="fil0" d="M11.07 2.58c-0.47,0 -0.85,0.38 -0.85,0.85 0,0.47 0.38,0.85 0.85,0.85 0.47,0 0.85,-0.38 0.85,-0.85 0,-0.47 -0.38,-0.85 -0.85,-0.85z"/>
  <path class="fil0" d="M7.3 9.52c-1.26,0 -2.28,-1.02 -2.28,-2.28 0,-1.26 1.02,-2.28 2.28,-2.28 1.26,0 2.28,1.02 2.28,2.28 0,1.26 -1.02,2.28 -2.28,2.28zm0 -5.85c-1.97,0 -3.57,1.6 -3.57,3.57 0,1.97 1.6,3.57 3.57,3.57 1.97,0 3.57,-1.6 3.57,-3.57 0,-1.97 -1.6,-3.57 -3.57,-3.57z"/>
  <path class="fil0" d="M4.35 1.36c-1.65,0 -2.99,1.34 -2.99,2.99l0 5.78c0,1.65 1.34,2.99 2.99,2.99l5.78 0c1.65,0 2.99,-1.34 2.99,-2.99l0 -5.78c0,-1.65 -1.34,-2.99 -2.99,-2.99l-5.78 0zm5.78 13.12l-5.78 0c-2.4,0 -4.35,-1.95 -4.35,-4.35l0 -5.78c0,-2.4 1.95,-4.35 4.35,-4.35l5.78 0c2.4,0 4.35,1.95 4.35,4.35l0 5.78c0,2.4 -1.95,4.35 -4.35,4.35z"/>
 </g>
</svg>
