<?xml version="1.0" encoding="UTF-8"?>
<!DOCTYPE svg PUBLIC "-//W3C//DTD SVG 1.1//EN" "http://www.w3.org/Graphics/SVG/1.1/DTD/svg11.dtd">
<!-- Creator: CorelDRAW (Evaluation Version) -->
<svg xmlns="http://www.w3.org/2000/svg" xml:space="preserve" width="1.47017in" height="1.47021in" version="1.1" style="shape-rendering:geometricPrecision; text-rendering:geometricPrecision; image-rendering:optimizeQuality; fill-rule:evenodd; clip-rule:evenodd"
viewBox="0 0 27.5 27.51"
 xmlns:xlink="http://www.w3.org/1999/xlink"
 xmlns:xodm="http://www.corel.com/coreldraw/odm/2003">
 <defs>
  <style type="text/css">
   <![CDATA[
    .fil0 {fill:#4C4E50;fill-rule:nonzero}
   ]]>
  </style>
 </defs>
 <g id="Capa_x0020_1">
  <metadata id="CorelCorpID_0Corel-Layer"/>
  <path class="fil0" d="M-0 20.31l0 -13.12c0,-3.96 3.24,-7.2 7.19,-7.2l13.12 0c3.96,0 7.19,3.24 7.19,7.2l0 13.12c0,3.96 -3.24,7.19 -7.19,7.19l-13.12 0c-3.96,0 -7.19,-3.24 -7.19,-7.19zm10.86 -11.83c0,-0.84 -0.69,-1.54 -1.52,-1.54 -0.78,0 -1.57,0.62 -1.57,1.54 0,0.78 0.61,1.54 1.54,1.54 1.16,0 1.54,-0.99 1.54,-1.54zm9.75 6.74c0,-1 -0.06,-1.99 -0.41,-2.75 -0.42,-0.9 -1.23,-1.5 -2.78,-1.49 -0.98,0.01 -2.01,0.43 -2.52,1.38 0,0 -0.03,0 -0.04,0 0.01,-0.36 0.05,-1.02 0,-1.17l-2.55 0 0 8.56 2.66 0 0 -4.44c-0.05,-1.09 0.46,-1.98 1.49,-1.98 1.18,-0.01 1.48,0.85 1.48,1.84l0 4.58 2.66 0 0 -4.53zm-9.96 -4.03l-2.66 0c0,2.79 0.04,5.72 0,8.56l2.66 0 0 -8.56z"/>
 </g>
</svg>
