<?xml version="1.0" encoding="UTF-8"?>
<!DOCTYPE svg PUBLIC "-//W3C//DTD SVG 1.1//EN" "http://www.w3.org/Graphics/SVG/1.1/DTD/svg11.dtd">
<!-- Creator: CorelDRAW -->
<svg xmlns="http://www.w3.org/2000/svg" xml:space="preserve" width="1040px" height="1039px" version="1.1" style="shape-rendering:geometricPrecision; text-rendering:geometricPrecision; image-rendering:optimizeQuality; fill-rule:evenodd; clip-rule:evenodd"
viewBox="0 0 353.98 353.64"
 xmlns:xlink="http://www.w3.org/1999/xlink"
 xmlns:xodm="http://www.corel.com/coreldraw/odm/2003">
 <defs>
  <style type="text/css">
   <![CDATA[
    .fil0 {fill:#34B0BE}
    .fil1 {fill:#FF4F6F}
   ]]>
  </style>
 </defs>
 <g id="Capa_x0020_1">
  <metadata id="CorelCorpID_0Corel-Layer"/>
  <path class="fil0" d="M136.14 0l37.1 0 0 79.92c-24.34,0.79 -49.4,9.4 -66.64,28.97 -16.25,18.45 -21.26,42.29 -21.82,64.35l-84.78 0 0 -37.1c0,-74.88 61.26,-136.14 136.14,-136.14zm37.1 112.55l0 48.88c-6.63,0.98 -8.24,5.55 -8.12,11.81l-46.96 0c0.21,-14.3 4.26,-30.26 14.64,-42.32 12.16,-14.13 29.23,-17.79 40.44,-18.37z"/>
  <path class="fil0" d="M217.83 353.64l-37.1 0 0 -80.67c3.25,0 6.63,-0.17 10.19,-0.54 21.37,-2.26 47.55,-13.45 59.01,-32.35 3.21,-5.29 5.66,-10.87 6.63,-16.86 1.46,-8.99 0.89,-35.8 -3.51,-42.83l100.93 0 0 37.1c0,74.88 -61.27,136.15 -136.15,136.15zm-37.1 -109.91l0.01 -53.83c7.67,0.01 15.35,-0.1 23.01,-0.08 3.34,0.01 6.29,0.17 7.98,0.37 4.47,0.54 7.79,1.36 10.34,3.63 3.11,2.77 3.86,7.56 3.89,14.72 0.03,7.98 0.95,12.85 -4.39,19.47 -9.18,11.42 -27.22,16.2 -40.84,15.72z"/>
  <path class="fil1" d="M17.02 213.85l0 -33.46 67.81 0c-0.28,13.88 4.56,43.74 24.28,64.57 18.98,20.05 44.62,27.51 64.13,28.01l0 63.65 -33.45 0c-67.52,0 -122.77,-55.25 -122.77,-122.77zm101.19 -33.46l46.77 0c-0.14,5.31 2.89,9.42 8.26,9.5l0 53.17c-7.74,-0.87 -26.63,-4.25 -39.46,-18.52 -13.24,-14.73 -15.74,-35.17 -15.57,-44.15z"/>
  <path class="fil1" d="M336.96 139.79l0 33.45 -87.59 0c-2.21,-3.51 -6.21,-6.63 -11.15,-8.53 -2.17,-0.84 -5.08,-1.53 -8.19,-2.01 -5.75,-0.88 -12.21,-1.15 -15.89,-1.2 -16.18,-0.09 -18.26,-0.05 -33.41,-0.08l0 -49.1c5.98,0 12.68,0.5 18.53,1.98 4.8,1.21 9.02,3.12 11.85,5.54 2.99,2.57 7.19,8.48 11.75,15.45 1.99,3.02 4.42,6.95 8.74,8.9 5.41,2.44 11.57,2.51 17.47,-0.92 5.6,-3.26 11.56,-11.18 5.84,-25.47 -1.99,-4.98 -5.23,-10 -9.14,-14.33 -3.98,-4.4 -8.8,-8.04 -13.47,-11.12 -10.56,-6.98 -32.06,-13.53 -51.57,-12.7l0 -62.63 33.46 0c67.52,0 122.77,55.25 122.77,122.77z"/>
 </g>
</svg>
