<?xml version="1.0" encoding="UTF-8"?>
<!DOCTYPE svg PUBLIC "-//W3C//DTD SVG 1.1//EN" "http://www.w3.org/Graphics/SVG/1.1/DTD/svg11.dtd">
<!-- Creator: CorelDRAW -->
<svg xmlns="http://www.w3.org/2000/svg" xml:space="preserve" width="1044px" height="1043px" version="1.1" style="shape-rendering:geometricPrecision; text-rendering:geometricPrecision; image-rendering:optimizeQuality; fill-rule:evenodd; clip-rule:evenodd"
viewBox="0 0 89.68 89.59"
 xmlns:xlink="http://www.w3.org/1999/xlink"
 xmlns:xodm="http://www.corel.com/coreldraw/odm/2003">
 <defs>
  <style type="text/css">
   <![CDATA[
    .str0 {stroke:#F9FBFC;stroke-width:0.34;stroke-miterlimit:22.9256}
    .str1 {stroke:#F6EAEE;stroke-width:0.34;stroke-miterlimit:22.9256}
    .str2 {stroke:#F9FBFC;stroke-width:0.69;stroke-miterlimit:22.9256}
    .str3 {stroke:#F7EDF1;stroke-width:0.69;stroke-miterlimit:22.9256}
    .str4 {stroke:#F8F5F6;stroke-width:0.2;stroke-miterlimit:22.9256}
    .fil4 {fill:#FEFEFE}
    .fil6 {fill:#F9FBFC}
    .fil7 {fill:#F7F0F3}
    .fil3 {fill:#F7EDF1}
    .fil5 {fill:#6B809B}
    .fil0 {fill:#34B0BE}
    .fil1 {fill:#ADADAD}
    .fil2 {fill:#ADADAD;fill-rule:nonzero}
   ]]>
  </style>
 </defs>
 <g id="Capa_x0020_1">
  <metadata id="CorelCorpID_0Corel-Layer"/>
  <path class="fil0 str0" d="M34.53 0.17l9.37 0 0 40.05c-1.64,0.67 -1.98,1.61 -2.06,3.68l-41.67 0 0 -9.37c0,-18.9 15.46,-34.36 34.36,-34.36z"/>
  <path class="fil0 str1" d="M55.15 89.42l-9.37 0 0 -43.72 43.73 0 0 9.36c0,18.9 -15.46,34.36 -34.36,34.36z"/>
  <path class="fil1 str2" d="M4.47 54.14l0 -8.44 37.34 0c0.1,1.57 0.62,2.75 2.09,3.24l0 36.19 -8.45 0c-17.04,0 -30.98,-13.95 -30.98,-30.99z"/>
  <path class="fil1 str3" d="M85.21 35.45l0 8.45 -39.43 0 0 -39.43 8.45 0c17.04,0 30.98,13.94 30.98,30.98z"/>
  <path class="fil2" d="M65.11 54.29c0.06,9.02 -9.73,14.77 -19.33,14.77 0,0 0,-7.38 0,-7.38 4.65,0.26 11.52,-2.49 11.43,-7.05 0,-5.41 0.09,-6.7 -6.78,-6.54 -4.13,0.1 -4.47,0.28 -4.65,-2.39l18.26 0c0.88,1.98 1.04,4.41 1.07,8.59zm-19.33 -10.39c0.05,-2 0.71,-2.98 4.26,-2.99 7.83,-0.01 11.02,0.11 13.07,2.99l-17.33 0zm-1.88 25.16c-13.42,-0.78 -21.89,-9.81 -22.32,-23.36 3.1,0 5.33,-0.01 8.43,0 0.3,8.46 4.49,14.74 13.89,15.81 0,1.87 0.01,5.82 0,7.55zm-22.33 -25.16c0.24,-14.26 8.46,-22.83 22.33,-23.56l0 8.24c-8.88,0.47 -13.7,6.76 -13.91,15.32l-8.42 0zm24.21 -23.63c0.27,0 0.11,0 0.37,0 6.7,0 14.46,2.3 17.84,8.56 1.21,2.25 1.89,4.92 -0.19,6.9 -1.97,1.89 -5.21,1.69 -6.78,-0.55 -1.26,-1.79 -2.19,-3.22 -2.99,-4.18 -1.62,-1.95 -5.02,-2.47 -8.25,-2.48l0 -8.25z"/>
  <path class="fil3" d="M29.99 43.9c0.21,-8.56 5.03,-14.85 13.91,-15.32l0 -8.24c-13.87,0.73 -22.09,9.3 -22.33,23.56l8.42 0z"/>
  <path class="fil4" d="M54.03 31c0.8,0.96 1.73,2.39 2.99,4.18 1.57,2.24 4.81,2.44 6.78,0.55 2.08,-1.98 1.4,-4.65 0.19,-6.9 -3.38,-6.26 -11.14,-8.56 -17.84,-8.56 -0.26,0 -0.1,0 -0.37,0l0 8.25c3.23,0.01 6.63,0.53 8.25,2.48z"/>
  <path class="fil3" d="M43.9 61.51c-9.4,-1.07 -13.59,-7.35 -13.89,-15.81l-8.43 0c0.43,13.55 8.9,22.58 22.32,23.36l0 -7.55z"/>
  <path class="fil5 str4" d="M45.78 43.9l17.33 0c-2.05,-2.88 -5.24,-3 -13.07,-2.99 -3.55,0.01 -4.21,0.99 -4.26,2.99z"/>
  <path class="fil6" d="M45.78 43.9l17.33 0c-2.05,-2.88 -5.24,-3 -13.07,-2.99 -3.55,0.01 -4.21,0.99 -4.26,2.99z"/>
  <path class="fil7" d="M57.21 54.63c0.09,4.56 -6.78,7.31 -11.43,7.05l0 7.38c9.6,0 19.39,-5.75 19.33,-14.77 -0.03,-4.18 -0.19,-6.61 -1.07,-8.59l-18.26 0c0,1.69 0.52,2.49 4.65,2.39 6.87,-0.16 6.78,1.13 6.78,6.54z"/>
 </g>
</svg>
