<?xml version="1.0" encoding="UTF-8"?>
<!DOCTYPE svg PUBLIC "-//W3C//DTD SVG 1.1//EN" "http://www.w3.org/Graphics/SVG/1.1/DTD/svg11.dtd">
<!-- Creator: CorelDRAW -->
<svg xmlns="http://www.w3.org/2000/svg" xml:space="preserve" width="1040px" height="1039px" version="1.1" style="shape-rendering:geometricPrecision; text-rendering:geometricPrecision; image-rendering:optimizeQuality; fill-rule:evenodd; clip-rule:evenodd"
viewBox="0 0 332.3 331.98"
 xmlns:xlink="http://www.w3.org/1999/xlink"
 xmlns:xodm="http://www.corel.com/coreldraw/odm/2003">
 <defs>
  <style type="text/css">
   <![CDATA[
    .fil0 {fill:#34B0BE}
    .fil1 {fill:#ADADAD}
   ]]>
  </style>
 </defs>
 <g id="Capa_x0020_1">
  <metadata id="CorelCorpID_0Corel-Layer"/>
  <path class="fil0" d="M127.81 0l34.82 0 0 75.02c-22.85,0.75 -46.37,8.83 -62.56,27.2 -15.25,17.32 -19.96,39.7 -20.48,60.41l-79.59 0 0 -34.82c0,-70.3 57.51,-127.81 127.81,-127.81zm34.82 105.65l0 45.9c-6.22,0.91 -7.73,5.21 -7.62,11.08l-44.09 0c0.2,-13.43 4,-28.41 13.75,-39.73 11.42,-13.27 27.44,-16.7 37.96,-17.25z"/>
  <path class="fil0" d="M204.49 331.98l-34.83 0 0 -75.73c3.06,0.01 6.23,-0.15 9.57,-0.51 20.06,-2.12 44.63,-12.62 55.39,-30.36 3.02,-4.97 5.32,-10.21 6.23,-15.83 1.36,-8.44 0.83,-33.6 -3.3,-40.21l94.75 0 0 34.83c0,70.3 -57.51,127.81 -127.81,127.81zm-34.83 -103.18l0.01 -50.53c7.2,0.01 14.41,-0.1 21.61,-0.07 3.13,0.01 5.9,0.15 7.48,0.35 4.2,0.5 7.32,1.27 9.71,3.4 2.92,2.6 3.63,7.09 3.65,13.82 0.03,7.49 0.89,12.06 -4.11,18.28 -8.63,10.71 -25.57,15.21 -38.35,14.75z"/>
  <path class="fil1" d="M15.98 200.75l0 -31.41 63.65 0c-0.26,13.03 4.29,41.07 22.8,60.62 17.82,18.82 41.88,25.82 60.2,26.29l0 59.75 -31.4 0c-63.39,0 -115.25,-51.86 -115.25,-115.25zm94.99 -31.41l43.9 0c-0.12,4.99 2.72,8.84 7.76,8.93l0 49.9c-7.26,-0.81 -24.99,-3.98 -37.04,-17.38 -12.43,-13.83 -14.78,-33.02 -14.62,-41.45z"/>
  <path class="fil1" d="M316.32 131.23l0 31.4 -82.22 0c-2.08,-3.3 -5.83,-6.22 -10.47,-8.01 -2.04,-0.78 -4.76,-1.44 -7.68,-1.88 -5.41,-0.83 -11.47,-1.09 -14.92,-1.13 -15.19,-0.08 -17.15,-0.05 -31.37,-0.07l0 -46.1c5.62,0 11.9,0.48 17.4,1.86 4.5,1.14 8.47,2.93 11.12,5.21 2.81,2.41 6.75,7.95 11.04,14.49 1.86,2.84 4.15,6.53 8.2,8.36 5.07,2.29 10.86,2.36 16.4,-0.87 5.25,-3.06 10.85,-10.49 5.48,-23.9 -1.87,-4.68 -4.91,-9.39 -8.59,-13.46 -3.73,-4.13 -8.25,-7.55 -12.64,-10.44 -9.91,-6.55 -30.1,-12.69 -48.41,-11.91l0 -58.8 31.41 0c63.39,0 115.25,51.86 115.25,115.25z"/>
 </g>
</svg>
