<?xml version="1.0" encoding="UTF-8"?>
<!DOCTYPE svg PUBLIC "-//W3C//DTD SVG 1.1//EN" "http://www.w3.org/Graphics/SVG/1.1/DTD/svg11.dtd">
<!-- Creator: CorelDRAW -->
<svg xmlns="http://www.w3.org/2000/svg" xml:space="preserve" width="1600px" height="1583px" version="1.1" style="shape-rendering:geometricPrecision; text-rendering:geometricPrecision; image-rendering:optimizeQuality; fill-rule:evenodd; clip-rule:evenodd"
viewBox="0 0 1668.05 1650.06"
 xmlns:xlink="http://www.w3.org/1999/xlink"
 xmlns:xodm="http://www.corel.com/coreldraw/odm/2003">
 <defs>
  <style type="text/css">
   <![CDATA[
    .fil0 {fill:black}
   ]]>
  </style>
 </defs>
 <g id="Capa_x0020_1">
  <metadata id="CorelCorpID_0Corel-Layer"/>
  <path class="fil0" d="M6.52 157.14c0,86.34 65.9,132.69 124.61,191.4 36.42,36.43 463.32,459.26 474.84,476.47 -11.77,17.57 -498.87,500.68 -553.03,554.66 -15.14,15.09 -23.44,24 -34.49,43.7 -11.53,20.59 -17.61,44.94 -18.45,69.71l0 12.04c1.36,39.59 15.99,78.9 43.05,104.36 39.86,37.51 81.3,39.78 132.88,39.78 42.54,0 84.56,-27.64 106.76,-49.61l390.88 -391.02c26.86,-26.86 51.33,-51.33 78.19,-78.19 19.35,-19.35 66.35,-61.73 79.01,-80.63 20.88,13.98 488.87,489.73 552.96,551.47 71.24,68.62 194.5,60.43 242.53,2.93 24.68,-29.55 38.69,-62.35 41.79,-95.35l0 -27.94c-3.44,-36.49 -20.42,-72.17 -51.31,-102.88l-356.74 -356.74c-7.29,-7.29 -12.21,-12.41 -19.49,-19.61 -8.9,-8.81 -14.08,-10.9 -22.93,-19.42l-158.76 -160.51c18.12,-12.14 492.64,-491.24 548.19,-546.47 15.26,-15.17 22.09,-26.88 31.78,-46.41 54.17,-109.23 -38.99,-224.86 -130.38,-224.86 -56.35,0 -87.9,7.68 -129.51,49.68l-465.87 465.88c-19.03,19.03 -60.39,64.91 -79.01,77.38 -26.5,-17.75 -119.38,-123.7 -157.34,-155.42 -9.21,-7.7 -12.27,-9.15 -21.05,-18.04l-371.37 -371.43c-112.29,-112.95 -277.74,-25.71 -277.74,105.07z"/>
 </g>
</svg>
