<?xml version="1.0" encoding="UTF-8"?>
<!DOCTYPE svg PUBLIC "-//W3C//DTD SVG 1.0//EN" "http://www.w3.org/TR/2001/REC-SVG-20010904/DTD/svg10.dtd">
<!-- Creator: CorelDRAW -->
<?xml-stylesheet href="iconos y logos.css" type="text/css"?>
<svg xmlns="http://www.w3.org/2000/svg" xml:space="preserve" width="1.02777in" height="1.03356in" version="1.0" style="shape-rendering:geometricPrecision; text-rendering:geometricPrecision; image-rendering:optimizeQuality; fill-rule:evenodd; clip-rule:evenodd"
viewBox="0 0 5.56 5.59"
 xmlns:xlink="http://www.w3.org/1999/xlink"
 xmlns:xodm="http://www.corel.com/coreldraw/odm/2003">
 <g id="Capa_x0020_1">
  <metadata id="CorelCorpID_0Corel-Layer"/>
  <path class="fil0 str0" d="M2.78 0.2c-1.43,0 -2.58,1.16 -2.58,2.6 0,1.43 1.16,2.6 2.58,2.6 1.43,0 2.58,-1.16 2.58,-2.6 0,-1.43 -1.16,-2.6 -2.58,-2.6z"/>
  <g>
   <path class="fil1" d="M1.56 5.27l0 -1.69c0,-0.09 -0,-0.17 -0,-0.22 0.15,0.12 0.38,0.33 0.66,0.36 0.18,0.02 0.45,-0.1 0.56,-0.21 0.18,0.11 0.38,0.24 0.61,0.2 0.31,-0.05 0.48,-0.25 0.64,-0.37 -0,0.06 -0,0.14 -0,0.26l0 1.68 -2.46 0zm0 -2.11c0.01,-0.07 0.04,-0.1 0.11,-0.24l0.78 -1.36c0.3,-0.52 0.37,-0.53 0.68,-0.01 0.26,0.45 0.51,0.89 0.77,1.34 0.04,0.08 0.09,0.18 0.11,0.22 -0.07,-0.06 -0.17,-0.11 -0.28,-0.04 -0.14,0.11 -0.3,0.23 -0.41,0.24 -0.19,0.02 -0.37,-0.25 -0.5,-0.25 -0.18,-0 -0.35,0.24 -0.53,0.25 -0.05,0 -0.19,-0.03 -0.36,-0.19 -0.1,-0.09 -0.24,-0.11 -0.34,0.02 -0,0 -0.01,0 -0.02,0.01zm2.46 2.11l-2.46 0 2.46 0z"/>
  </g>
 </g>
</svg>
