<?xml version="1.0" standalone="no"?>
<!DOCTYPE svg PUBLIC "-//W3C//DTD SVG 20010904//EN"
 "http://www.w3.org/TR/2001/REC-SVG-20010904/DTD/svg10.dtd">
<svg version="1.0" xmlns="http://www.w3.org/2000/svg"
 width="110" height="110" viewBox="0 0 310.000000 311.000000"
 preserveAspectRatio="xMidYMid meet">

<g transform="translate(0.000000,311.000000) scale(0.100000,-0.100000)"
fill="#FF4F6F" stroke="none">
<path d="M1460 3094 c-137 -8 -311 -45 -435 -91 -789 -293 -1198 -1155 -928
-1953 163 -482 573 -866 1058 -991 137 -35 245 -49 395 -49 219 0 373 30 574
111 500 202 854 650 942 1194 18 109 20 343 4 451 -92 627 -544 1131 -1148
1283 -134 34 -329 52 -462 45z m295 -225 c138 -21 256 -60 399 -132 365 -185
630 -547 701 -959 19 -108 22 -321 5 -423 -47 -298 -176 -551 -386 -757 -75
-74 -207 -178 -225 -178 -5 0 -9 184 -9 410 0 226 -2 410 -5 410 -2 0 -40 -29
-83 -64 -93 -74 -173 -114 -257 -129 -86 -15 -145 -2 -253 54 l-95 50 -40 -27
c-51 -34 -152 -71 -214 -80 -97 -12 -221 36 -350 137 l-63 49 -2 -415 -3 -415
-60 39 c-399 261 -633 757 -585 1236 32 326 166 606 401 837 292 288 705 419
1124 357z"/>
<path d="M1512 2433 c-37 -26 -82 -99 -331 -533 -128 -223 -244 -424 -257
-447 -13 -23 -28 -53 -34 -68 l-10 -27 31 26 c49 42 110 30 192 -38 48 -39
121 -75 152 -76 11 0 72 25 135 56 190 92 167 88 245 43 37 -22 100 -53 139
-70 88 -38 110 -33 223 48 95 68 122 79 164 64 50 -17 51 -15 20 47 -45 88
-443 780 -501 871 -74 115 -116 140 -168 104z"/>
</g>
</svg>
