<?xml version="1.0" encoding="UTF-8"?>
<!DOCTYPE svg PUBLIC "-//W3C//DTD SVG 1.1//EN" "http://www.w3.org/Graphics/SVG/1.1/DTD/svg11.dtd">
<!-- Creator: CorelDRAW -->
<svg xmlns="http://www.w3.org/2000/svg" xml:space="preserve" width="0.669303in" height="0.551528in" version="1.1" style="shape-rendering:geometricPrecision; text-rendering:geometricPrecision; image-rendering:optimizeQuality; fill-rule:evenodd; clip-rule:evenodd"
viewBox="0 0 5.34 4.4"
 xmlns:xlink="http://www.w3.org/1999/xlink"
 xmlns:xodm="http://www.corel.com/coreldraw/odm/2003">
 <defs>
  <style type="text/css">
   <![CDATA[
    .fil0 {fill:#34B0BE;fill-rule:nonzero}
   ]]>
  </style>
 </defs>
 <g id="Capa_x0020_1">
  <metadata id="CorelCorpID_0Corel-Layer"/>
  <path class="fil0" d="M5.32 0.53c-0.17,0.08 -0.36,0.12 -0.54,0.15 0.09,-0.01 0.21,-0.17 0.27,-0.24 0.08,-0.1 0.14,-0.21 0.18,-0.33l-0 -0.03 -0.03 0c-0.2,0.11 -0.42,0.19 -0.64,0.25l-0.04 -0.01 -0.06 -0.06c-0.09,-0.08 -0.2,-0.14 -0.31,-0.19 -0.15,-0.06 -0.31,-0.09 -0.48,-0.08 -0.16,0.01 -0.31,0.05 -0.45,0.13 -0.14,0.07 -0.27,0.18 -0.37,0.3 -0.1,0.13 -0.18,0.28 -0.22,0.44 -0.04,0.15 -0.03,0.31 -0.01,0.46l-0.02 0.03c-0.88,-0.13 -1.61,-0.45 -2.2,-1.12 -0.03,-0.03 -0.04,-0.03 -0.06,0 -0.26,0.39 -0.13,1.01 0.19,1.32 0.04,0.04 0.09,0.08 0.14,0.12 -0.02,0 -0.23,-0.02 -0.43,-0.12l-0.04 0.02c-0,0.04 0,0.08 0.01,0.13 0.05,0.39 0.32,0.76 0.7,0.9 0.04,0.02 0.09,0.04 0.14,0.04 -0.09,0.02 -0.17,0.03 -0.42,0.01 -0.03,-0.01 -0.04,0.01 -0.03,0.04 0.18,0.5 0.58,0.65 0.88,0.73 0.04,0.01 0.08,0.01 0.12,0.02l-0.01 0.01c-0.1,0.15 -0.44,0.26 -0.6,0.32 -0.29,0.1 -0.6,0.15 -0.91,0.12 -0.05,-0.01 -0.06,-0.01 -0.07,0l0.01 0.03c0.06,0.04 0.13,0.08 0.19,0.11 0.19,0.1 0.4,0.18 0.61,0.24 1.09,0.3 2.32,0.08 3.14,-0.73 0.64,-0.64 0.87,-1.52 0.87,-2.41 0,-0.03 0.04,-0.05 0.07,-0.07 0.17,-0.13 0.3,-0.28 0.43,-0.44 0.03,-0.04 0.03,-0.07 0.03,-0.08l0 -0 -0.02 0z"/>
 </g>
</svg>
