<?xml version="1.0" encoding="UTF-8"?>
<!DOCTYPE svg PUBLIC "-//W3C//DTD SVG 1.1//EN" "http://www.w3.org/Graphics/SVG/1.1/DTD/svg11.dtd">
<!-- Creator: CorelDRAW -->
<svg xmlns="http://www.w3.org/2000/svg" xml:space="preserve" width="0.68622in" height="0.68622in" version="1.1" style="shape-rendering:geometricPrecision; text-rendering:geometricPrecision; image-rendering:optimizeQuality; fill-rule:evenodd; clip-rule:evenodd"
viewBox="0 0 5.2 5.2"
 xmlns:xlink="http://www.w3.org/1999/xlink"
 xmlns:xodm="http://www.corel.com/coreldraw/odm/2003">
 <defs>
  <style type="text/css">
   <![CDATA[
    .fil0 {fill:none}
    .fil1 {fill:#34B0BE;fill-rule:nonzero}
   ]]>
  </style>
 </defs>
 <g id="Capa_x0020_1">
  <metadata id="CorelCorpID_0Corel-Layer"/>
  <rect class="fil0" width="5.2" height="5.2"/>
  <path class="fil1" d="M5.18 0.97c-0.17,0.07 -0.35,0.12 -0.53,0.15 0.17,-0.03 0.48,-0.55 0.44,-0.58 -0.03,-0.02 -0.12,0.05 -0.36,0.15 -0.05,0.02 -0.3,0.12 -0.35,0.08 -0.1,-0.11 -0.21,-0.18 -0.35,-0.24 -0.15,-0.06 -0.31,-0.08 -0.46,-0.07 -0.15,0.01 -0.3,0.05 -0.44,0.12 -0.14,0.07 -0.26,0.17 -0.35,0.29 -0.1,0.12 -0.17,0.27 -0.21,0.42 -0.04,0.15 -0.03,0.3 -0.01,0.45l-0.02 0.03c-0.86,-0.13 -1.57,-0.43 -2.14,-1.09 -0.03,-0.03 -0.04,-0.03 -0.06,0 -0.25,0.38 -0.13,0.99 0.19,1.28 0.04,0.04 0.09,0.08 0.13,0.12 -0.02,0 -0.23,-0.02 -0.41,-0.12 -0.02,-0.01 -0.04,-0.02 -0.04,0.02 -0,0.04 0,0.08 0.01,0.12 0.05,0.38 0.31,0.74 0.68,0.88 0.04,0.02 0.09,0.03 0.14,0.04 -0.08,0.02 -0.17,0.03 -0.41,0.01 -0.03,-0 -0.04,0.01 -0.03,0.04 0.18,0.49 0.51,0.62 0.97,0.73 -0.32,0.32 -1.03,0.47 -1.47,0.43 -0.04,-0.01 -0.05,-0.01 -0.06,-0 -0.03,0.01 0.18,0.14 0.19,0.14 0.19,0.1 0.39,0.18 0.59,0.24 1.06,0.29 2.26,0.08 3.06,-0.71 0.63,-0.62 0.85,-1.48 0.85,-2.34 0,-0.03 0.04,-0.05 0.06,-0.07 0.16,-0.12 0.29,-0.27 0.42,-0.43 0.03,-0.04 0.03,-0.07 0.03,-0.08 0,-0.01 -0,-0.01 -0.02,-0z"/>
 </g>
</svg>
