<?xml version="1.0" encoding="UTF-8"?>
<!DOCTYPE svg PUBLIC "-//W3C//DTD SVG 1.1//EN" "http://www.w3.org/Graphics/SVG/1.1/DTD/svg11.dtd">
<!-- Creator: CorelDRAW -->
<svg xmlns="http://www.w3.org/2000/svg" xml:space="preserve" width="1.0522in" height="1.0522in" version="1.1" style="shape-rendering:geometricPrecision; text-rendering:geometricPrecision; image-rendering:optimizeQuality; fill-rule:evenodd; clip-rule:evenodd"
viewBox="0 0 12.82 12.82"
 xmlns:xlink="http://www.w3.org/1999/xlink"
 xmlns:xodm="http://www.corel.com/coreldraw/odm/2003">
 <defs>
  <style type="text/css">
   <![CDATA[
    .fil1 {fill:#FEFEFE}
    .fil2 {fill:#1CB36C}
    .fil0 {fill:#FEFEFE;fill-rule:nonzero}
   ]]>
  </style>
 </defs>
 <g id="Capa_x0020_1">
  <metadata id="CorelCorpID_0Corel-Layer"/>
  <path class="fil0" d="M3.63 10.61l0.22 0.13c0.8,0.48 1.71,0.73 2.63,0.73 2.84,0 5.15,-2.3 5.15,-5.14 0,-2.83 -2.31,-5.14 -5.15,-5.14 -2.84,0 -5.15,2.3 -5.15,5.14 0,0.94 0.26,1.86 0.75,2.66l0.13 0.22 -0.51 1.92 1.93 -0.52zm-3.63 2.21l0.92 -3.43c-0.52,-0.94 -0.8,-1.99 -0.8,-3.06 0,-3.49 2.85,-6.33 6.35,-6.33 3.5,0 6.35,2.84 6.35,6.33 0,3.49 -2.85,6.33 -6.35,6.33 -1.05,0 -2.09,-0.27 -3.02,-0.77l-3.46 0.92z"/>
  <path class="fil1" d="M8.83 7.21c-0.26,-0.16 -0.6,-0.33 -0.91,-0.2 -0.24,0.1 -0.39,0.47 -0.54,0.65 -0.08,0.1 -0.17,0.11 -0.29,0.06 -0.88,-0.35 -1.56,-0.94 -2.05,-1.76 -0.08,-0.13 -0.07,-0.23 0.03,-0.34 0.15,-0.17 0.33,-0.37 0.37,-0.6 0.04,-0.23 -0.07,-0.51 -0.17,-0.72 -0.12,-0.27 -0.26,-0.65 -0.53,-0.8 -0.25,-0.14 -0.57,-0.06 -0.79,0.12 -0.38,0.31 -0.56,0.79 -0.55,1.26 0,0.14 0.02,0.27 0.05,0.4 0.08,0.31 0.22,0.61 0.39,0.89 0.12,0.21 0.26,0.41 0.4,0.61 0.47,0.64 1.06,1.2 1.74,1.62 0.34,0.21 0.71,0.39 1.09,0.52 0.43,0.14 0.8,0.29 1.27,0.2 0.48,-0.09 0.96,-0.39 1.15,-0.85 0.06,-0.14 0.08,-0.29 0.05,-0.44 -0.07,-0.3 -0.47,-0.48 -0.71,-0.62z"/>
  <path class="fil2" d="M5.99 8.41c-0.68,-0.42 -1.27,-0.98 -1.74,-1.62 -0.14,-0.2 -0.28,-0.4 -0.4,-0.61 -0.16,-0.28 -0.31,-0.57 -0.39,-0.89 -0.03,-0.13 -0.05,-0.27 -0.05,-0.4 -0.01,-0.48 0.18,-0.96 0.55,-1.26 0.22,-0.18 0.54,-0.26 0.79,-0.12 0.27,0.15 0.4,0.53 0.53,0.8 0.1,0.21 0.21,0.48 0.17,0.72 -0.04,0.23 -0.22,0.43 -0.37,0.6 -0.1,0.12 -0.12,0.22 -0.03,0.34 0.49,0.81 1.17,1.4 2.05,1.76 0.12,0.05 0.21,0.03 0.29,-0.06 0.15,-0.19 0.3,-0.56 0.54,-0.65 0.31,-0.13 0.65,0.05 0.91,0.2 0.24,0.14 0.65,0.32 0.71,0.62 0.03,0.14 0,0.3 -0.05,0.44 -0.19,0.46 -0.67,0.76 -1.15,0.85 -0.46,0.09 -0.84,-0.06 -1.27,-0.2 -0.38,-0.13 -0.75,-0.31 -1.09,-0.52zm-2.36 2.2l0.22 0.13c0.8,0.48 1.71,0.73 2.63,0.73 2.84,0 5.15,-2.3 5.15,-5.14 0,-2.83 -2.31,-5.14 -5.15,-5.14 -2.84,0 -5.15,2.3 -5.15,5.14 0,0.94 0.26,1.86 0.75,2.66l0.13 0.22 -0.51 1.92 1.93 -0.52z"/>
 </g>
</svg>
