<?xml version="1.0" encoding="UTF-8"?>
<!DOCTYPE svg PUBLIC "-//W3C//DTD SVG 1.1//EN" "http://www.w3.org/Graphics/SVG/1.1/DTD/svg11.dtd">
<!-- Creator: CorelDRAW -->
<svg xmlns="http://www.w3.org/2000/svg" xml:space="preserve" width="2096px" height="1881px" version="1.1" style="shape-rendering:geometricPrecision; text-rendering:geometricPrecision; image-rendering:optimizeQuality; fill-rule:evenodd; clip-rule:evenodd"
viewBox="0 0 1012.98 909.08"
 xmlns:xlink="http://www.w3.org/1999/xlink"
 xmlns:xodm="http://www.corel.com/coreldraw/odm/2003">
 <defs>
  <style type="text/css">
   <![CDATA[
    .fil0 {fill:#FEFEFE}
    .fil1 {fill:#34B0BE}
    .fil2 {fill:#ADADAD}
   ]]>
  </style>
 </defs>
 <g id="Capa_x0020_1">
  <metadata id="CorelCorpID_0Corel-Layer"/>
  <rect class="fil0" width="1012.98" height="909.08"/>
  <path class="fil1" d="M454.78 200.57l52.68 0 0 113.48c-34.56,1.13 -70.15,13.35 -94.63,41.13 -23.08,26.2 -30.2,60.06 -30.98,91.38l-120.39 0 0 -52.68c0,-106.32 86.99,-193.31 193.32,-193.31zm52.68 159.81l0 69.42c-9.42,1.38 -11.71,7.87 -11.54,16.76l-66.68 0c0.31,-20.31 6.05,-42.97 20.79,-60.1 17.27,-20.06 41.5,-25.26 57.43,-26.08z"/>
  <path class="fil1" d="M570.77 702.71l-52.68 0 0 -114.54c4.62,0 9.42,-0.24 14.47,-0.77 30.35,-3.21 67.51,-19.09 83.79,-45.93 4.55,-7.52 8.04,-15.44 9.41,-23.94 2.07,-12.77 1.26,-50.83 -4.99,-60.82l143.32 0 0 52.68c0,106.33 -87,193.32 -193.32,193.32zm-52.68 -156.06l0.01 -76.44c10.89,0.02 21.8,-0.14 32.68,-0.11 4.73,0.02 8.92,0.24 11.33,0.53 6.35,0.77 11.06,1.93 14.68,5.15 4.41,3.94 5.49,10.73 5.53,20.91 0.04,11.32 1.34,18.24 -6.24,27.64 -13.04,16.21 -38.66,23.01 -57.99,22.32z"/>
  <path class="fil2" d="M282.27 504.22l0 -47.51 99.64 0c-0.39,19.71 6.48,62.11 34.48,91.69 26.95,28.47 63.36,39.06 91.07,39.77l0 90.37 -47.51 0c-95.88,0 -177.68,-78.44 -177.68,-174.32zm147.05 -47.51l66.4 0c-0.19,7.54 4.11,13.37 11.74,13.5l0 75.48c-10.99,-1.22 -37.81,-6.02 -56.03,-26.29 -18.81,-20.92 -22.36,-49.94 -22.11,-62.69z"/>
  <path class="fil2" d="M739.92 399.06l0 47.5 -124.37 0c-3.14,-4.99 -8.81,-9.41 -15.83,-12.11 -3.09,-1.19 -7.21,-2.18 -11.62,-2.86 -8.18,-1.25 -17.34,-1.64 -22.57,-1.7 -22.97,-0.13 -25.93,-0.07 -47.44,-0.11l0 -69.73c8.49,0.01 18,0.72 26.31,2.82 6.81,1.71 12.81,4.43 16.82,7.87 4.26,3.65 10.22,12.04 16.7,21.93 2.81,4.3 6.27,9.87 12.4,12.63 7.68,3.47 16.43,3.58 24.81,-1.3 7.95,-4.63 16.41,-15.88 8.29,-36.16 -2.83,-7.07 -7.42,-14.2 -12.99,-20.36 -5.64,-6.24 -12.49,-11.41 -19.11,-15.79 -15,-9.91 -45.53,-19.2 -73.23,-18.02l0 -88.94 47.5 0c95.88,0 174.33,78.45 174.33,174.33z"/>
 </g>
</svg>
